{
	"asset":{
		"generator":"Khronos glTF Blender I/O v4.2.60",
		"version":"2.0"
	},
	"scene":0,
	"scenes":[
		{
			"name":"Scene",
			"nodes":[
				0
			]
		}
	],
	"nodes":[
		{
			"mesh":0,
			"name":"Mesh_0"
		}
	],
	"materials":[
		{
			"doubleSided":true,
			"name":"Material_0",
			"pbrMetallicRoughness":{
				"baseColorTexture":{
					"index":0
				},
				"metallicFactor":0,
				"roughnessFactor":0.800000011920929
			}
		}
	],
	"meshes":[
		{
			"name":"Mesh_0",
			"primitives":[
				{
					"attributes":{
						"POSITION":0,
						"NORMAL":1,
						"TEXCOORD_0":2
					},
					"indices":3,
					"material":0
				}
			]
		}
	],
	"textures":[
		{
			"sampler":0,
			"source":0
		}
	],
	"images":[
		{
			"mimeType":"image/jpeg",
			"name":"Image_0",
			"uri":"Image_0.jpg"
		}
	],
	"accessors":[
		{
			"bufferView":0,
			"componentType":5126,
			"count":6264,
			"max":[
				0.9323539733886719,
				0.9936069846153259,
				0.9076970219612122
			],
			"min":[
				-0.9346209764480591,
				-0.9922879934310913,
				-0.913241982460022
			],
			"type":"VEC3"
		},
		{
			"bufferView":1,
			"componentType":5126,
			"count":6264,
			"type":"VEC3"
		},
		{
			"bufferView":2,
			"componentType":5126,
			"count":6264,
			"type":"VEC2"
		},
		{
			"bufferView":3,
			"componentType":5123,
			"count":30000,
			"type":"SCALAR"
		}
	],
	"bufferViews":[
		{
			"buffer":0,
			"byteLength":75168,
			"byteOffset":0,
			"target":34962
		},
		{
			"buffer":0,
			"byteLength":75168,
			"byteOffset":75168,
			"target":34962
		},
		{
			"buffer":0,
			"byteLength":50112,
			"byteOffset":150336,
			"target":34962
		},
		{
			"buffer":0,
			"byteLength":60000,
			"byteOffset":200448,
			"target":34963
		}
	],
	"samplers":[
		{
			"magFilter":9729,
			"minFilter":9987
		}
	],
	"buffers":[
		{
			"byteLength":260448,
			"uri":"pumpkin.bin"
		}
	]
}
