{
  "accessors": [
    {
      "bufferView": 2,
      "componentType": 5126,
      "count": 65532,
      "max": [
        118.77300262451172,
        -498.3810119628906,
        101.71399688720703
      ],
      "min": [
        -129.09800720214844,
        -737.9320068359375,
        -119.43800354003906
      ],
      "type": "VEC3"
    },
    {
      "bufferView": 2,
      "byteOffset": 786384,
      "componentType": 5126,
      "count": 65532,
      "max": [
        0.9999822378158569,
        0.9825332164764404,
        0.998098611831665
      ],
      "min": [
        -0.9993388652801514,
        -0.9999794960021973,
        -0.9998998045921326
      ],
      "type": "VEC3"
    },
    {
      "bufferView": 1,
      "componentType": 5126,
      "count": 65532,
      "max": [
        0.9857670068740845,
        0.9987469911575317
      ],
      "min": [
        0.05153590068221092,
        0.2303050011396408
      ],
      "type": "VEC2"
    },
    {
      "bufferView": 0,
      "componentType": 5125,
      "count": 333456,
      "type": "SCALAR"
    },
    {
      "bufferView": 2,
      "byteOffset": 1572768,
      "componentType": 5126,
      "count": 65532,
      "max": [
        119.12300109863281,
        -496.37200927734375,
        100.68599700927734
      ],
      "min": [
        -131.6510009765625,
        -738.093994140625,
        -120.99299621582031
      ],
      "type": "VEC3"
    },
    {
      "bufferView": 2,
      "byteOffset": 2359152,
      "componentType": 5126,
      "count": 65532,
      "max": [
        0.999843418598175,
        0.9997063875198364,
        0.9998059272766113
      ],
      "min": [
        -0.999997079372406,
        -0.9995952844619751,
        -0.9998962879180908
      ],
      "type": "VEC3"
    },
    {
      "bufferView": 1,
      "byteOffset": 524256,
      "componentType": 5126,
      "count": 65532,
      "max": [
        0.9888280034065247,
        0.9987469911575317
      ],
      "min": [
        0.01595029979944229,
        0.20520800352096558
      ],
      "type": "VEC2"
    },
    {
      "bufferView": 0,
      "byteOffset": 1333824,
      "componentType": 5125,
      "count": 329802,
      "type": "SCALAR"
    },
    {
      "bufferView": 2,
      "byteOffset": 3145536,
      "componentType": 5126,
      "count": 65532,
      "max": [
        119.53299713134766,
        -505.1130065917969,
        110.70700073242188
      ],
      "min": [
        -131.30599975585938,
        -733.8079833984375,
        -122.14299774169922
      ],
      "type": "VEC3"
    },
    {
      "bufferView": 2,
      "byteOffset": 3931920,
      "componentType": 5126,
      "count": 65532,
      "max": [
        0.99998939037323,
        0.9997830390930176,
        0.9999549984931946
      ],
      "min": [
        -0.9995394349098206,
        -0.9999017119407654,
        -0.9999914765357971
      ],
      "type": "VEC3"
    },
    {
      "bufferView": 1,
      "byteOffset": 1048512,
      "componentType": 5126,
      "count": 65532,
      "max": [
        0.9782459735870361,
        0.9493269920349121
      ],
      "min": [
        0.0056342799216508865,
        0.04372129961848259
      ],
      "type": "VEC2"
    },
    {
      "bufferView": 0,
      "byteOffset": 2653032,
      "componentType": 5125,
      "count": 339591,
      "type": "SCALAR"
    },
    {
      "bufferView": 2,
      "byteOffset": 4718304,
      "componentType": 5126,
      "count": 65532,
      "max": [
        118.39800262451172,
        -514.6480102539063,
        112.41100311279297
      ],
      "min": [
        -131.7949981689453,
        -737.4329833984375,
        -121.28500366210938
      ],
      "type": "VEC3"
    },
    {
      "bufferView": 2,
      "byteOffset": 5504688,
      "componentType": 5126,
      "count": 65532,
      "max": [
        0.9999422430992126,
        0.9958964586257935,
        0.9999973773956299
      ],
      "min": [
        -0.9999949932098389,
        -0.9998810291290283,
        -0.9999311566352844
      ],
      "type": "VEC3"
    },
    {
      "bufferView": 1,
      "byteOffset": 1572768,
      "componentType": 5126,
      "count": 65532,
      "max": [
        0.9918799996376038,
        0.9830549955368042
      ],
      "min": [
        0.003734220052137971,
        0.03925430029630661
      ],
      "type": "VEC2"
    },
    {
      "bufferView": 0,
      "byteOffset": 4011396,
      "componentType": 5125,
      "count": 314943,
      "type": "SCALAR"
    },
    {
      "bufferView": 2,
      "byteOffset": 6291072,
      "componentType": 5126,
      "count": 65532,
      "max": [
        119.13800048828125,
        -481.4070129394531,
        108.54900360107422
      ],
      "min": [
        -131.59500122070313,
        -737.7030029296875,
        -122.14299774169922
      ],
      "type": "VEC3"
    },
    {
      "bufferView": 2,
      "byteOffset": 7077456,
      "componentType": 5126,
      "count": 65532,
      "max": [
        0.9999526143074036,
        0.9995468258857727,
        0.9999913573265076
      ],
      "min": [
        -0.9999899864196777,
        -0.9990052580833435,
        -0.9999637007713318
      ],
      "type": "VEC3"
    },
    {
      "bufferView": 1,
      "byteOffset": 2097024,
      "componentType": 5126,
      "count": 65532,
      "max": [
        0.9983620047569275,
        0.9862440228462219
      ],
      "min": [
        0.0009873060043901205,
        0.0012531300308182836
      ],
      "type": "VEC2"
    },
    {
      "bufferView": 0,
      "byteOffset": 5271168,
      "componentType": 5125,
      "count": 300639,
      "type": "SCALAR"
    },
    {
      "bufferView": 2,
      "byteOffset": 7863840,
      "componentType": 5126,
      "count": 65532,
      "max": [
        115.97000122070313,
        -481.29998779296875,
        112.3219985961914
      ],
      "min": [
        -131.375,
        -738.093994140625,
        -99.27490234375
      ],
      "type": "VEC3"
    },
    {
      "bufferView": 2,
      "byteOffset": 8650224,
      "componentType": 5126,
      "count": 65532,
      "max": [
        0.9999822378158569,
        0.9999629259109497,
        0.9998927116394043
      ],
      "min": [
        -0.999997079372406,
        -0.9999328255653381,
        -0.9998202323913574
      ],
      "type": "VEC3"
    },
    {
      "bufferView": 1,
      "byteOffset": 2621280,
      "componentType": 5126,
      "count": 65532,
      "max": [
        0.9900270104408264,
        0.9987469911575317
      ],
      "min": [
        0.004632370080798864,
        0.04659179970622063
      ],
      "type": "VEC2"
    },
    {
      "bufferView": 0,
      "byteOffset": 6473724,
      "componentType": 5125,
      "count": 293208,
      "type": "SCALAR"
    },
    {
      "bufferView": 2,
      "byteOffset": 9436608,
      "componentType": 5126,
      "count": 52170,
      "max": [
        119.48600006103516,
        -481.4129943847656,
        112.29100036621094
      ],
      "min": [
        -131.81500244140625,
        -738.0919799804688,
        -121.72000122070313
      ],
      "type": "VEC3"
    },
    {
      "bufferView": 2,
      "byteOffset": 10062648,
      "componentType": 5126,
      "count": 52170,
      "max": [
        0.9999282360076904,
        0.9997650384902954,
        0.9999973773956299
      ],
      "min": [
        -0.9999793171882629,
        -0.9999178051948547,
        -0.9998827576637268
      ],
      "type": "VEC3"
    },
    {
      "bufferView": 1,
      "byteOffset": 3145536,
      "componentType": 5126,
      "count": 52170,
      "max": [
        0.9990130066871643,
        0.9948089718818665
      ],
      "min": [
        0.0009873060043901205,
        0.01590839959681034
      ],
      "type": "VEC2"
    },
    {
      "bufferView": 0,
      "byteOffset": 7646556,
      "componentType": 5125,
      "count": 146817,
      "type": "SCALAR"
    }
  ],
  "asset": {
    "extras": {
      "author": "NJMDesign (https://sketchfab.com/NJMDesign)",
      "license": "CC-BY-4.0 (http://creativecommons.org/licenses/by/4.0/)",
      "source": "https://sketchfab.com/3d-models/pumpkin-82ab953fe5a14867a5801a6f96c27267",
      "title": "PUMPKIN"
    },
    "generator": "Sketchfab-12.67.0",
    "version": "2.0"
  },
  "bufferViews": [
    {
      "buffer": 0,
      "byteLength": 8233824,
      "name": "floatBufferViews",
      "target": 34963
    },
    {
      "buffer": 0,
      "byteLength": 3562896,
      "byteOffset": 8233824,
      "byteStride": 8,
      "name": "floatBufferViews",
      "target": 34962
    },
    {
      "buffer": 0,
      "byteLength": 10688688,
      "byteOffset": 11796720,
      "byteStride": 12,
      "name": "floatBufferViews",
      "target": 34962
    }
  ],
  "buffers": [
    {
      "byteLength": 22485408,
      "uri": "scene.bin"
    }
  ],
  "images": [
    {
      "uri": "textures/texture_baseColor.jpeg"
    }
  ],
  "materials": [
    {
      "doubleSided": true,
      "name": "texture",
      "pbrMetallicRoughness": {
        "baseColorTexture": {
          "index": 0
        },
        "metallicFactor": 0.0
      }
    }
  ],
  "meshes": [
    {
      "name": "Object_0",
      "primitives": [
        {
          "attributes": {
            "NORMAL": 1,
            "POSITION": 0,
            "TEXCOORD_0": 2
          },
          "indices": 3,
          "material": 0,
          "mode": 4
        }
      ]
    },
    {
      "name": "Object_1",
      "primitives": [
        {
          "attributes": {
            "NORMAL": 5,
            "POSITION": 4,
            "TEXCOORD_0": 6
          },
          "indices": 7,
          "material": 0,
          "mode": 4
        }
      ]
    },
    {
      "name": "Object_2",
      "primitives": [
        {
          "attributes": {
            "NORMAL": 9,
            "POSITION": 8,
            "TEXCOORD_0": 10
          },
          "indices": 11,
          "material": 0,
          "mode": 4
        }
      ]
    },
    {
      "name": "Object_3",
      "primitives": [
        {
          "attributes": {
            "NORMAL": 13,
            "POSITION": 12,
            "TEXCOORD_0": 14
          },
          "indices": 15,
          "material": 0,
          "mode": 4
        }
      ]
    },
    {
      "name": "Object_4",
      "primitives": [
        {
          "attributes": {
            "NORMAL": 17,
            "POSITION": 16,
            "TEXCOORD_0": 18
          },
          "indices": 19,
          "material": 0,
          "mode": 4
        }
      ]
    },
    {
      "name": "Object_5",
      "primitives": [
        {
          "attributes": {
            "NORMAL": 21,
            "POSITION": 20,
            "TEXCOORD_0": 22
          },
          "indices": 23,
          "material": 0,
          "mode": 4
        }
      ]
    },
    {
      "name": "Object_6",
      "primitives": [
        {
          "attributes": {
            "NORMAL": 25,
            "POSITION": 24,
            "TEXCOORD_0": 26
          },
          "indices": 27,
          "material": 0,
          "mode": 4
        }
      ]
    }
  ],
  "nodes": [
    {
      "children": [
        1
      ],
      "matrix": [
        1.0,
        0.0,
        0.0,
        0.0,
        0.0,
        0.4224941134452822,
        -0.9063656926155089,
        0.0,
        0.0,
        0.9063656926155089,
        0.4224941134452822,
        0.0,
        0.0,
        257.13775634765625,
        59.14441680908209,
        1.0
      ],
      "name": "Sketchfab_model"
    },
    {
      "children": [
        2,
        3,
        4,
        5,
        6,
        7,
        8
      ],
      "name": "SKETCHFAB_PUMPKIN.obj.cleaner.materialmerger.gles"
    },
    {
      "mesh": 0,
      "name": "Object_2"
    },
    {
      "mesh": 1,
      "name": "Object_3"
    },
    {
      "mesh": 2,
      "name": "Object_4"
    },
    {
      "mesh": 3,
      "name": "Object_5"
    },
    {
      "mesh": 4,
      "name": "Object_6"
    },
    {
      "mesh": 5,
      "name": "Object_7"
    },
    {
      "mesh": 6,
      "name": "Object_8"
    }
  ],
  "samplers": [
    {
      "magFilter": 9729,
      "minFilter": 9987,
      "wrapS": 10497,
      "wrapT": 10497
    }
  ],
  "scene": 0,
  "scenes": [
    {
      "name": "Sketchfab_Scene",
      "nodes": [
        0
      ]
    }
  ],
  "textures": [
    {
      "sampler": 0,
      "source": 0
    }
  ]
}
